<svg id="Layer_1" data-name="Layer 1" xmlns="http://www.w3.org/2000/svg" viewBox="0 0 36 36"><defs><style>.cls-1{fill-rule:evenodd;}</style></defs><path class="cls-1" d="M39.36,6.11h-30a3,3,0,0,0-3,3v30a3,3,0,0,0,3,3h30a3,3,0,0,0,3-3v-30A3,3,0,0,0,39.36,6.11Zm1,33a1,1,0,0,1-1,1h-30a1,1,0,0,1-1-1v-30a1,1,0,0,1,1-1h30a1,1,0,0,1,1,1Z" transform="translate(-6.36 -6.11)"/><path class="cls-1" d="M28.29,23.31a4.4,4.4,0,0,0,2.29-.63,4.46,4.46,0,0,0,2.32.62l2.62-.86A3.71,3.71,0,0,0,37,20.29a3.44,3.44,0,0,0-.38-2.49,4.1,4.1,0,0,0-2-1.71A3.69,3.69,0,0,0,33.1,14l-2.56-.8h-.29a4.13,4.13,0,0,0-2.4-1.5l-5.48-.28a4.33,4.33,0,0,0-2.44,1,5.13,5.13,0,0,0-1-.1,4.46,4.46,0,0,0-2.22.59,3.82,3.82,0,0,0-1.5,1.59l-2.08,1.33A3.36,3.36,0,0,0,12.38,18a3,3,0,0,0,.14,1,3.34,3.34,0,0,0-.83,2.23,3.44,3.44,0,0,0,1.1,2.51,3.5,3.5,0,0,0,.75,1.86,4.14,4.14,0,0,0,1.71,1.25,5.91,5.91,0,0,1,2,1.75,5.26,5.26,0,0,1,.92,2.34h5.38V27a3.37,3.37,0,0,1,.62-1.95A4,4,0,0,1,25.8,23.7a.9.9,0,0,0,.6-.53,1.5,1.5,0,0,1,.35-.49,4.53,4.53,0,0,1,.4.27A1.59,1.59,0,0,0,28.29,23.31Zm3.14-1.78a2.79,2.79,0,0,0,1.26.35l2.15-.7A2.29,2.29,0,0,0,35.58,20a2.07,2.07,0,0,0-.23-1.47A2.65,2.65,0,0,0,34,17.4l-.68-.27-.17-.71a2.16,2.16,0,0,0-.73-1.14l-2.11-.67h-.77l-.42-.55a2.73,2.73,0,0,0-1.48-1l-5.25-.26a2.85,2.85,0,0,0-1.56.64l-.53.44-.67-.14A3.83,3.83,0,0,0,19,13.7a3,3,0,0,0-1.5.41,2.31,2.31,0,0,0-.95,1l-.18.35-2.2,1.41A2,2,0,0,0,13.78,18h0a2,2,0,0,0,.08.53l.24.74-.51.6a2,2,0,0,0-.5,1.3h0a2.08,2.08,0,0,0,.68,1.49l.38.37,0,.53a2,2,0,0,0,.45,1.1,2.65,2.65,0,0,0,1.11.81l.1,0,.09,0,.3.19h0a7,7,0,0,1,3,3.74h.43V24.37L18.13,23,17.08,24a.7.7,0,1,1-1-1l1.26-1.26L17,19.7l-1.71-.85a.71.71,0,0,1-.32-1,.7.7,0,0,1,1-.31l1.67.83,2.05-1.3L19,15.42a.71.71,0,0,1,.42-.91.7.7,0,0,1,.9.41L21,16.75h.76l.36-.72-.58-1.34a.72.72,0,0,1,.37-.93.71.71,0,0,1,.93.37l.49,1.16,2,.35h0l1.26-1a.71.71,0,0,1,1,.11.69.69,0,0,1-.11,1l-.84.68.94,1.21.36-.72a.7.7,0,0,1,.63-.39H30a.7.7,0,0,1,.7.7.7.7,0,0,1-.7.71H28.94l-.19.37,1.18.26.16.06,1,.51a.7.7,0,0,1-.63,1.26l-.94-.47-2.2-.49a.66.66,0,0,1-.4-.25l-1.62-2.08-1.95-.35-.09.06-.41.83V18h.81a.88.88,0,0,1,.32.07l2,1a.69.69,0,0,1,.31.94.7.7,0,0,1-.94.32l-1.88-.94h-.65V20.5a.7.7,0,0,1-.71.7.7.7,0,0,1-.7-.7V18.73h0v-.56h-.87l-2.22,1.41.38,2.09,2.1,1.87a.69.69,0,0,1,.24.52v5.46h1V27a4.87,4.87,0,0,1,1.65-3.63,5.86,5.86,0,0,1,1.45-.94,2.75,2.75,0,0,1,.58-.78l.79-.75a18.38,18.38,0,0,1,1.55,1,6,6,0,0,0,1.31-.21A8.92,8.92,0,0,0,30.58,21Z" transform="translate(-6.36 -6.11)"/><path d="M18,34h5.64V32.56H18Z" transform="translate(-6.36 -6.11)"/><path d="M23.66,36.78H18v-1.4h5.64Z" transform="translate(-6.36 -6.11)"/></svg>