<svg width="190" height="48" viewBox="0 0 190 48" fill="none" xmlns="http://www.w3.org/2000/svg">
<circle cx="24.0525" cy="24.0525" r="22.4209" stroke="#064C58" stroke-width="2.73682"/>
<mask id="mask0_648_28" style="mask-type:alpha" maskUnits="userSpaceOnUse" x="4" y="4" width="40" height="40">
<circle cx="24.1052" cy="24.1049" r="19.2104" fill="#77DE8D"/>
</mask>
<g mask="url(#mask0_648_28)">
<rect x="-0.894775" y="-3.21045" width="25.0525" height="49.3681" fill="#77DE8D"/>
</g>
<mask id="mask1_648_28" style="mask-type:alpha" maskUnits="userSpaceOnUse" x="4" y="4" width="40" height="40">
<circle cx="24.105" cy="24.105" r="19.2104" transform="rotate(-180 24.105 24.105)" fill="#86CCEA"/>
</mask>
<g mask="url(#mask1_648_28)">
<rect x="49.105" y="51.4209" width="25.0525" height="49.3681" transform="rotate(-180 49.105 51.4209)" fill="#86CCEA"/>
</g>
<mask id="path-6-outside-1_648_28" maskUnits="userSpaceOnUse" x="8.99976" y="8.99951" width="30" height="30" fill="black">
<rect fill="white" x="8.99976" y="8.99951" width="30" height="30"/>
<path fill-rule="evenodd" clip-rule="evenodd" d="M24.0524 36.9995C26.4359 36.9995 28.3682 35.0673 28.3682 32.6838L28.3682 27.8419L32.6314 27.8419C35.044 27.8419 36.9998 25.8861 36.9998 23.4735C36.9998 21.0609 35.044 19.1051 32.6314 19.1051L28.3682 19.1051L28.3682 15.526C28.3682 13.1424 26.4359 11.2102 24.0524 11.2102C21.6689 11.2102 19.7367 13.1424 19.7367 15.526L19.7367 19.1051L15.5788 19.1051C13.1663 19.1051 11.2105 21.0609 11.2105 23.4735C11.2105 25.8861 13.1663 27.8419 15.5788 27.8419L19.7367 27.8419L19.7367 32.6838C19.7367 35.0673 21.6689 36.9995 24.0524 36.9995Z"/>
</mask>
<path fill-rule="evenodd" clip-rule="evenodd" d="M24.0524 36.9995C26.4359 36.9995 28.3682 35.0673 28.3682 32.6838L28.3682 27.8419L32.6314 27.8419C35.044 27.8419 36.9998 25.8861 36.9998 23.4735C36.9998 21.0609 35.044 19.1051 32.6314 19.1051L28.3682 19.1051L28.3682 15.526C28.3682 13.1424 26.4359 11.2102 24.0524 11.2102C21.6689 11.2102 19.7367 13.1424 19.7367 15.526L19.7367 19.1051L15.5788 19.1051C13.1663 19.1051 11.2105 21.0609 11.2105 23.4735C11.2105 25.8861 13.1663 27.8419 15.5788 27.8419L19.7367 27.8419L19.7367 32.6838C19.7367 35.0673 21.6689 36.9995 24.0524 36.9995Z" fill="#77DE8D"/>
<path d="M28.3682 32.6838L27.105 32.6838L28.3682 32.6838ZM28.3682 27.8419L28.3682 26.5787L27.105 26.5787L27.105 27.8419L28.3682 27.8419ZM32.6314 27.8419L32.6314 29.105L32.6314 27.8419ZM32.6314 19.1051L32.6314 20.3683L32.6314 19.1051ZM28.3682 19.1051L27.105 19.1051L27.105 20.3683L28.3682 20.3683L28.3682 19.1051ZM28.3682 15.526L27.105 15.526L28.3682 15.526ZM19.7367 19.1051L19.7367 20.3683L20.9998 20.3683L20.9998 19.1051L19.7367 19.1051ZM19.7367 27.8419L20.9998 27.8419L20.9998 26.5787L19.7367 26.5787L19.7367 27.8419ZM27.105 32.6838C27.105 34.3697 25.7383 35.7364 24.0524 35.7364L24.0524 38.2627C27.1336 38.2627 29.6313 35.7649 29.6313 32.6838L27.105 32.6838ZM27.105 27.8419L27.105 32.6838L29.6313 32.6838L29.6313 27.8419L27.105 27.8419ZM32.6314 26.5787L28.3682 26.5787L28.3682 29.105L32.6314 29.105L32.6314 26.5787ZM35.7366 23.4735C35.7366 25.1885 34.3463 26.5787 32.6314 26.5787L32.6314 29.105C35.7416 29.105 38.2629 26.5837 38.2629 23.4735L35.7366 23.4735ZM32.6314 20.3683C34.3463 20.3683 35.7366 21.7585 35.7366 23.4735L38.2629 23.4735C38.2629 20.3633 35.7416 17.842 32.6314 17.842L32.6314 20.3683ZM28.3682 20.3683L32.6314 20.3683L32.6314 17.842L28.3682 17.842L28.3682 20.3683ZM27.105 15.526L27.105 19.1051L29.6313 19.1051L29.6313 15.526L27.105 15.526ZM24.0524 12.4734C25.7383 12.4734 27.105 13.8401 27.105 15.526L29.6313 15.526C29.6313 12.4448 27.1336 9.94706 24.0524 9.94706L24.0524 12.4734ZM20.9998 15.526C20.9998 13.8401 22.3665 12.4734 24.0524 12.4734L24.0524 9.94706C20.9713 9.94706 18.4735 12.4448 18.4735 15.526L20.9998 15.526ZM20.9998 19.1051L20.9998 15.526L18.4735 15.526L18.4735 19.1051L20.9998 19.1051ZM15.5788 20.3682L19.7367 20.3683L19.7367 17.842L15.5788 17.842L15.5788 20.3682ZM12.4736 23.4735C12.4736 21.7585 13.8639 20.3682 15.5788 20.3682L15.5788 17.842C12.4686 17.842 9.94731 20.3633 9.94731 23.4735L12.4736 23.4735ZM15.5788 26.5787C13.8639 26.5787 12.4736 25.1885 12.4736 23.4735L9.94731 23.4735C9.94731 26.5837 12.4686 29.105 15.5788 29.105L15.5788 26.5787ZM19.7367 26.5787L15.5788 26.5787L15.5788 29.105L19.7367 29.105L19.7367 26.5787ZM20.9998 32.6838L20.9998 27.8419L18.4735 27.8419L18.4735 32.6838L20.9998 32.6838ZM24.0524 35.7364C22.3665 35.7364 20.9998 34.3697 20.9998 32.6838L18.4735 32.6838C18.4735 35.7649 20.9713 38.2627 24.0524 38.2627L24.0524 35.7364Z" fill="white" mask="url(#path-6-outside-1_648_28)"/>
<mask id="mask2_648_28" style="mask-type:alpha" maskUnits="userSpaceOnUse" x="11" y="11" width="26" height="26">
<mask id="path-8-inside-2_648_28" fill="white">
<path fill-rule="evenodd" clip-rule="evenodd" d="M24.0524 36.9995C26.4359 36.9995 28.3682 35.0673 28.3682 32.6838L28.3682 27.8419L32.6314 27.8419C35.044 27.8419 36.9998 25.8861 36.9998 23.4735C36.9998 21.0609 35.044 19.1051 32.6314 19.1051L28.3682 19.1051L28.3682 15.526C28.3682 13.1424 26.4359 11.2102 24.0524 11.2102C21.6689 11.2102 19.7367 13.1424 19.7367 15.526L19.7367 19.1051L15.5788 19.1051C13.1663 19.1051 11.2105 21.0609 11.2105 23.4735C11.2105 25.8861 13.1663 27.8419 15.5788 27.8419L19.7367 27.8419L19.7367 32.6838C19.7367 35.0673 21.6689 36.9995 24.0524 36.9995Z"/>
</mask>
<path fill-rule="evenodd" clip-rule="evenodd" d="M24.0524 36.9995C26.4359 36.9995 28.3682 35.0673 28.3682 32.6838L28.3682 27.8419L32.6314 27.8419C35.044 27.8419 36.9998 25.8861 36.9998 23.4735C36.9998 21.0609 35.044 19.1051 32.6314 19.1051L28.3682 19.1051L28.3682 15.526C28.3682 13.1424 26.4359 11.2102 24.0524 11.2102C21.6689 11.2102 19.7367 13.1424 19.7367 15.526L19.7367 19.1051L15.5788 19.1051C13.1663 19.1051 11.2105 21.0609 11.2105 23.4735C11.2105 25.8861 13.1663 27.8419 15.5788 27.8419L19.7367 27.8419L19.7367 32.6838C19.7367 35.0673 21.6689 36.9995 24.0524 36.9995Z" fill="#86CCEA"/>
<path d="M28.3682 32.6838L27.105 32.6838L28.3682 32.6838ZM28.3682 27.8419L28.3682 26.5787L27.105 26.5787L27.105 27.8419L28.3682 27.8419ZM32.6314 27.8419L32.6314 29.105L32.6314 27.8419ZM32.6314 19.1051L32.6314 20.3683L32.6314 19.1051ZM28.3682 19.1051L27.105 19.1051L27.105 20.3683L28.3682 20.3683L28.3682 19.1051ZM28.3682 15.526L27.105 15.526L28.3682 15.526ZM19.7367 19.1051L19.7367 20.3683L20.9998 20.3683L20.9998 19.1051L19.7367 19.1051ZM19.7367 27.8419L20.9998 27.8419L20.9998 26.5787L19.7367 26.5787L19.7367 27.8419ZM27.105 32.6838C27.105 34.3697 25.7383 35.7364 24.0524 35.7364L24.0524 38.2627C27.1336 38.2627 29.6313 35.7649 29.6313 32.6838L27.105 32.6838ZM27.105 27.8419L27.105 32.6838L29.6313 32.6838L29.6313 27.8419L27.105 27.8419ZM32.6314 26.5787L28.3682 26.5787L28.3682 29.105L32.6314 29.105L32.6314 26.5787ZM35.7366 23.4735C35.7366 25.1885 34.3463 26.5787 32.6314 26.5787L32.6314 29.105C35.7416 29.105 38.2629 26.5837 38.2629 23.4735L35.7366 23.4735ZM32.6314 20.3683C34.3463 20.3683 35.7366 21.7585 35.7366 23.4735L38.2629 23.4735C38.2629 20.3633 35.7416 17.842 32.6314 17.842L32.6314 20.3683ZM28.3682 20.3683L32.6314 20.3683L32.6314 17.842L28.3682 17.842L28.3682 20.3683ZM27.105 15.526L27.105 19.1051L29.6313 19.1051L29.6313 15.526L27.105 15.526ZM24.0524 12.4734C25.7383 12.4734 27.105 13.8401 27.105 15.526L29.6313 15.526C29.6313 12.4448 27.1336 9.94706 24.0524 9.94706L24.0524 12.4734ZM20.9998 15.526C20.9998 13.8401 22.3665 12.4734 24.0524 12.4734L24.0524 9.94706C20.9713 9.94706 18.4735 12.4448 18.4735 15.526L20.9998 15.526ZM20.9998 19.1051L20.9998 15.526L18.4735 15.526L18.4735 19.1051L20.9998 19.1051ZM15.5788 20.3682L19.7367 20.3683L19.7367 17.842L15.5788 17.842L15.5788 20.3682ZM12.4736 23.4735C12.4736 21.7585 13.8639 20.3682 15.5788 20.3682L15.5788 17.842C12.4686 17.842 9.94731 20.3633 9.94731 23.4735L12.4736 23.4735ZM15.5788 26.5787C13.8639 26.5787 12.4736 25.1885 12.4736 23.4735L9.94731 23.4735C9.94731 26.5837 12.4686 29.105 15.5788 29.105L15.5788 26.5787ZM19.7367 26.5787L15.5788 26.5787L15.5788 29.105L19.7367 29.105L19.7367 26.5787ZM20.9998 32.6838L20.9998 27.8419L18.4735 27.8419L18.4735 32.6838L20.9998 32.6838ZM24.0524 35.7364C22.3665 35.7364 20.9998 34.3697 20.9998 32.6838L18.4735 32.6838C18.4735 35.7649 20.9713 38.2627 24.0524 38.2627L24.0524 35.7364Z" fill="white" mask="url(#path-8-inside-2_648_28)"/>
</mask>
<g mask="url(#mask2_648_28)">
<rect x="41.2102" y="43.3154" width="17.0525" height="36.5261" transform="rotate(-180 41.2102 43.3154)" fill="#86CCEA"/>
</g>
<path d="M13.6316 21.7365C14.0743 20.8978 14.4274 20.586 15.4211 20.5786" stroke="white" stroke-width="0.8421" stroke-linecap="round"/>
<path d="M34.7893 25.4207C34.3466 26.2595 33.9935 26.5712 32.9998 26.5786" stroke="white" stroke-width="0.8421" stroke-linecap="round"/>
<line x1="24.162" y1="38.159" x2="24.0525" y2="11.0013" stroke="#FFFDFD" stroke-width="0.631575"/>
<path d="M59.325 26V8.5H71.625V10.5H61.475V15.975H71.2V18H61.475V23.925H72.025V26H59.325ZM79.7842 8.5V23.975H89.3092V26H77.6092V8.5H79.7842ZM102.812 10.55H92.5367V8.5H105.337L105.512 9.9L96.7617 26H94.2867L102.812 10.55ZM114.586 8.5H117.036L124.886 26H122.536L120.811 22.15H110.811L109.111 26H106.736L114.586 8.5ZM119.961 20.15L115.811 10.7L111.661 20.15H119.961ZM131.18 13.35H129.005C129.03 12.425 129.255 11.625 129.68 10.925C130.08 10.25 130.63 9.725 131.33 9.35C132.005 9 132.73 8.725 133.48 8.55C134.23 8.4 135.055 8.3 135.93 8.3C136.78 8.3 137.605 8.4 138.355 8.575C139.105 8.775 139.83 9.05 140.505 9.45C141.155 9.85 141.68 10.375 142.08 11.075C142.48 11.775 142.68 12.6 142.68 13.525C142.68 14.475 142.48 15.3 142.08 16C141.68 16.7 141.155 17.25 140.505 17.65C139.83 18.05 139.105 18.325 138.33 18.5C137.555 18.675 136.73 18.75 135.83 18.75C132.655 18.8 131.08 19.8 131.08 21.775V23.925H142.605V26H128.88V21.775C128.88 20.825 129.08 20.025 129.48 19.325C129.88 18.65 130.405 18.125 131.105 17.775C131.805 17.425 132.53 17.15 133.305 16.975C134.055 16.825 134.905 16.725 135.805 16.725C136.305 16.725 136.83 16.675 137.33 16.575C137.83 16.475 138.355 16.325 138.855 16.1C139.355 15.875 139.755 15.55 140.055 15.1C140.355 14.675 140.53 14.15 140.53 13.55C140.53 12.4 140.08 11.55 139.205 11.025C138.305 10.525 137.23 10.25 135.93 10.2C134.655 10.2 133.555 10.45 132.605 10.95C131.655 11.45 131.18 12.25 131.18 13.35ZM148.475 8.5H150L160.725 21.9V8.5H162.875V26H161.375L150.625 12.65V26H148.475V8.5ZM174.543 18.9L167.768 8.575V8.5H170.418L175.668 16.8L181.043 8.5H183.693V8.575L176.793 18.9V26H174.543V18.9Z" fill="white"/>
<mask id="path-15-outside-3_648_28" maskUnits="userSpaceOnUse" x="63" y="30" width="113" height="13" fill="black">
<rect fill="white" x="63" y="30" width="113" height="13"/>
<path d="M67.872 33.2H64.836V37.508H67.872C68.256 37.508 68.592 37.436 68.892 37.268C69.192 37.112 69.42 36.908 69.576 36.656C69.732 36.404 69.852 36.128 69.924 35.816C69.996 35.516 69.996 35.216 69.924 34.904C69.852 34.592 69.732 34.316 69.576 34.064C69.42 33.812 69.192 33.608 68.892 33.44C68.592 33.284 68.256 33.2 67.872 33.2ZM67.872 38.096H64.836V41H64.188V32.6H67.872C68.304 32.6 68.7 32.684 69.06 32.84C69.42 32.996 69.708 33.2 69.924 33.464C70.14 33.728 70.308 34.016 70.428 34.34C70.548 34.676 70.608 35.012 70.608 35.348C70.608 35.696 70.548 36.032 70.428 36.356C70.308 36.692 70.14 36.98 69.924 37.244C69.708 37.508 69.42 37.712 69.06 37.868C68.7 38.024 68.304 38.096 67.872 38.096ZM84.8751 41H84.2271V37.184H78.8751V41H78.2271V32.6H78.8751V36.596H84.2271V32.6H84.8751V41ZM100.619 41H99.9225L98.9985 38.936H93.9825L93.0705 41H92.3745L96.1425 32.6H96.8505L100.619 41ZM94.2345 38.336H98.7465L96.4905 33.224L94.2345 38.336ZM111.854 37.784L114.818 41H113.966L111.062 37.82H108.77V41H108.122V32.6H111.818C112.682 32.6 113.354 32.864 113.834 33.38C114.314 33.896 114.566 34.508 114.578 35.216C114.578 35.948 114.35 36.56 113.87 37.052C113.39 37.544 112.718 37.784 111.854 37.784ZM108.77 33.2V37.208H111.746C112.442 37.208 112.97 37.028 113.33 36.668C113.678 36.308 113.858 35.828 113.87 35.204C113.87 34.676 113.702 34.208 113.342 33.8C112.982 33.404 112.466 33.2 111.818 33.2H108.77ZM129.844 41V33.536L126.628 38.456H126.412L123.172 33.536V41H122.524V32.6H123.292L126.508 37.496L129.688 32.6H130.48V41H129.844ZM146.228 41H145.532L144.608 38.936H139.592L138.68 41H137.984L141.752 32.6H142.46L146.228 41ZM139.844 38.336H144.356L142.1 33.224L139.844 38.336ZM159.788 39.428L160.22 39.836C159.38 40.676 158.36 41.096 157.16 41.096C155.804 41.096 154.748 40.688 153.992 39.872C153.224 39.056 152.84 38.048 152.84 36.848C152.828 36.08 152.984 35.372 153.296 34.724C153.608 34.076 154.1 33.548 154.772 33.128C155.444 32.72 156.236 32.504 157.16 32.504C158.36 32.504 159.38 32.924 160.22 33.764L159.776 34.148C159.056 33.44 158.192 33.08 157.16 33.08C155.984 33.08 155.072 33.44 154.424 34.16C153.776 34.88 153.452 35.768 153.464 36.824C153.476 37.868 153.8 38.744 154.448 39.44C155.096 40.148 155.996 40.496 157.16 40.496C158.18 40.496 159.056 40.148 159.788 39.428ZM170.276 41V37.64L167 32.612V32.6H167.756L170.6 37.016L173.456 32.6H174.212V32.612L170.924 37.64V41H170.276Z"/>
</mask>
<path d="M67.872 33.2H64.836V37.508H67.872C68.256 37.508 68.592 37.436 68.892 37.268C69.192 37.112 69.42 36.908 69.576 36.656C69.732 36.404 69.852 36.128 69.924 35.816C69.996 35.516 69.996 35.216 69.924 34.904C69.852 34.592 69.732 34.316 69.576 34.064C69.42 33.812 69.192 33.608 68.892 33.44C68.592 33.284 68.256 33.2 67.872 33.2ZM67.872 38.096H64.836V41H64.188V32.6H67.872C68.304 32.6 68.7 32.684 69.06 32.84C69.42 32.996 69.708 33.2 69.924 33.464C70.14 33.728 70.308 34.016 70.428 34.34C70.548 34.676 70.608 35.012 70.608 35.348C70.608 35.696 70.548 36.032 70.428 36.356C70.308 36.692 70.14 36.98 69.924 37.244C69.708 37.508 69.42 37.712 69.06 37.868C68.7 38.024 68.304 38.096 67.872 38.096ZM84.8751 41H84.2271V37.184H78.8751V41H78.2271V32.6H78.8751V36.596H84.2271V32.6H84.8751V41ZM100.619 41H99.9225L98.9985 38.936H93.9825L93.0705 41H92.3745L96.1425 32.6H96.8505L100.619 41ZM94.2345 38.336H98.7465L96.4905 33.224L94.2345 38.336ZM111.854 37.784L114.818 41H113.966L111.062 37.82H108.77V41H108.122V32.6H111.818C112.682 32.6 113.354 32.864 113.834 33.38C114.314 33.896 114.566 34.508 114.578 35.216C114.578 35.948 114.35 36.56 113.87 37.052C113.39 37.544 112.718 37.784 111.854 37.784ZM108.77 33.2V37.208H111.746C112.442 37.208 112.97 37.028 113.33 36.668C113.678 36.308 113.858 35.828 113.87 35.204C113.87 34.676 113.702 34.208 113.342 33.8C112.982 33.404 112.466 33.2 111.818 33.2H108.77ZM129.844 41V33.536L126.628 38.456H126.412L123.172 33.536V41H122.524V32.6H123.292L126.508 37.496L129.688 32.6H130.48V41H129.844ZM146.228 41H145.532L144.608 38.936H139.592L138.68 41H137.984L141.752 32.6H142.46L146.228 41ZM139.844 38.336H144.356L142.1 33.224L139.844 38.336ZM159.788 39.428L160.22 39.836C159.38 40.676 158.36 41.096 157.16 41.096C155.804 41.096 154.748 40.688 153.992 39.872C153.224 39.056 152.84 38.048 152.84 36.848C152.828 36.08 152.984 35.372 153.296 34.724C153.608 34.076 154.1 33.548 154.772 33.128C155.444 32.72 156.236 32.504 157.16 32.504C158.36 32.504 159.38 32.924 160.22 33.764L159.776 34.148C159.056 33.44 158.192 33.08 157.16 33.08C155.984 33.08 155.072 33.44 154.424 34.16C153.776 34.88 153.452 35.768 153.464 36.824C153.476 37.868 153.8 38.744 154.448 39.44C155.096 40.148 155.996 40.496 157.16 40.496C158.18 40.496 159.056 40.148 159.788 39.428ZM170.276 41V37.64L167 32.612V32.6H167.756L170.6 37.016L173.456 32.6H174.212V32.612L170.924 37.64V41H170.276Z" fill="#86CCEA"/>
<path d="M64.836 33.2V32.2H63.836V33.2H64.836ZM64.836 37.508H63.836V38.508H64.836V37.508ZM68.892 37.268L68.4306 36.3808L68.4169 36.3879L68.4034 36.3955L68.892 37.268ZM69.924 35.816L68.9516 35.5826L68.9496 35.5911L69.924 35.816ZM69.924 34.904L68.9496 35.1289L68.9496 35.1289L69.924 34.904ZM69.576 34.064L68.7257 34.5904L68.7257 34.5904L69.576 34.064ZM68.892 33.44L69.3806 32.5675L69.3671 32.5599L69.3534 32.5528L68.892 33.44ZM64.836 38.096V37.096H63.836V38.096H64.836ZM64.836 41V42H65.836V41H64.836ZM64.188 41H63.188V42H64.188V41ZM64.188 32.6V31.6H63.188V32.6H64.188ZM69.06 32.84L68.6624 33.7576L68.6624 33.7576L69.06 32.84ZM70.428 34.34L71.3698 34.0036L71.3657 33.9927L70.428 34.34ZM70.428 36.356L69.4902 36.0087L69.4863 36.0197L70.428 36.356ZM69.924 37.244L69.15 36.6108L69.15 36.6108L69.924 37.244ZM69.06 37.868L68.6624 36.9504L68.6624 36.9504L69.06 37.868ZM67.872 32.2H64.836V34.2H67.872V32.2ZM63.836 33.2V37.508H65.836V33.2H63.836ZM64.836 38.508H67.872V36.508H64.836V38.508ZM67.872 38.508C68.3848 38.508 68.8983 38.4106 69.3806 38.1405L68.4034 36.3955C68.2857 36.4614 68.1272 36.508 67.872 36.508V38.508ZM69.3534 38.1552C69.7902 37.9281 70.1627 37.608 70.4263 37.1824L68.7257 36.1296C68.6773 36.2079 68.5938 36.2959 68.4306 36.3808L69.3534 38.1552ZM70.4263 37.1824C70.6351 36.845 70.7998 36.4679 70.8984 36.0409L68.9496 35.5911C68.9042 35.7881 68.8289 35.963 68.7257 36.1296L70.4263 37.1824ZM70.8964 36.0494C71.0059 35.5931 71.0038 35.1361 70.8984 34.6791L68.9496 35.1289C68.9882 35.2959 68.9861 35.4389 68.9516 35.5826L70.8964 36.0494ZM70.8984 34.6791C70.7998 34.2521 70.6351 33.875 70.4263 33.5376L68.7257 34.5904C68.8289 34.757 68.9042 34.9319 68.9496 35.1289L70.8984 34.6791ZM70.4263 33.5376C70.1629 33.1122 69.7953 32.7997 69.3806 32.5675L68.4034 34.3125C68.5887 34.4163 68.6771 34.5118 68.7257 34.5904L70.4263 33.5376ZM69.3534 32.5528C68.9046 32.3194 68.4094 32.2 67.872 32.2V34.2C68.1026 34.2 68.2794 34.2486 68.4306 34.3272L69.3534 32.5528ZM67.872 37.096H64.836V39.096H67.872V37.096ZM63.836 38.096V41H65.836V38.096H63.836ZM64.836 40H64.188V42H64.836V40ZM65.188 41V32.6H63.188V41H65.188ZM64.188 33.6H67.872V31.6H64.188V33.6ZM67.872 33.6C68.1709 33.6 68.4312 33.6574 68.6624 33.7576L69.4576 31.9224C68.9688 31.7106 68.4371 31.6 67.872 31.6V33.6ZM68.6624 33.7576C68.9075 33.8638 69.0547 33.9807 69.15 34.0972L70.698 32.8308C70.3613 32.4193 69.9325 32.1282 69.4576 31.9224L68.6624 33.7576ZM69.15 34.0972C69.2989 34.2792 69.4102 34.4712 69.4903 34.6873L71.3657 33.9927C71.2058 33.5608 70.9811 33.1768 70.698 32.8308L69.15 34.0972ZM69.4863 34.6763C69.5701 34.9111 69.608 35.1335 69.608 35.348H71.608C71.608 34.8905 71.5259 34.4409 71.3697 34.0037L69.4863 34.6763ZM69.608 35.348C69.608 35.5783 69.5688 35.7967 69.4903 36.0087L71.3657 36.7033C71.5272 36.2673 71.608 35.8137 71.608 35.348H69.608ZM69.4863 36.0197C69.4069 36.2418 69.2977 36.4303 69.15 36.6108L70.698 37.8772C70.9823 37.5297 71.2091 37.1422 71.3697 36.6923L69.4863 36.0197ZM69.15 36.6108C69.0547 36.7273 68.9075 36.8442 68.6624 36.9504L69.4576 38.7856C69.9325 38.5798 70.3613 38.2887 70.698 37.8772L69.15 36.6108ZM68.6624 36.9504C68.4486 37.0431 68.1917 37.096 67.872 37.096V39.096C68.4163 39.096 68.9514 39.0049 69.4576 38.7856L68.6624 36.9504ZM84.8751 41V42H85.8751V41H84.8751ZM84.2271 41H83.2271V42H84.2271V41ZM84.2271 37.184H85.2271V36.184H84.2271V37.184ZM78.8751 37.184V36.184H77.8751V37.184H78.8751ZM78.8751 41V42H79.8751V41H78.8751ZM78.2271 41H77.2271V42H78.2271V41ZM78.2271 32.6V31.6H77.2271V32.6H78.2271ZM78.8751 32.6H79.8751V31.6H78.8751V32.6ZM78.8751 36.596H77.8751V37.596H78.8751V36.596ZM84.2271 36.596V37.596H85.2271V36.596H84.2271ZM84.2271 32.6V31.6H83.2271V32.6H84.2271ZM84.8751 32.6H85.8751V31.6H84.8751V32.6ZM84.8751 40H84.2271V42H84.8751V40ZM85.2271 41V37.184H83.2271V41H85.2271ZM84.2271 36.184H78.8751V38.184H84.2271V36.184ZM77.8751 37.184V41H79.8751V37.184H77.8751ZM78.8751 40H78.2271V42H78.8751V40ZM79.2271 41V32.6H77.2271V41H79.2271ZM78.2271 33.6H78.8751V31.6H78.2271V33.6ZM77.8751 32.6V36.596H79.8751V32.6H77.8751ZM78.8751 37.596H84.2271V35.596H78.8751V37.596ZM85.2271 36.596V32.6H83.2271V36.596H85.2271ZM84.2271 33.6H84.8751V31.6H84.2271V33.6ZM83.8751 32.6V41H85.8751V32.6H83.8751ZM100.619 41V42H102.163L101.531 40.5907L100.619 41ZM99.9225 41L99.0098 41.4086L99.2745 42H99.9225V41ZM98.9985 38.936L99.9112 38.5274L99.6465 37.936H98.9985V38.936ZM93.9825 38.936V37.936H93.3311L93.0678 38.5318L93.9825 38.936ZM93.0705 41V42H93.7219L93.9852 41.4042L93.0705 41ZM92.3745 41L91.4621 40.5907L90.8299 42H92.3745V41ZM96.1425 32.6V31.6H95.4951L95.2301 32.1907L96.1425 32.6ZM96.8505 32.6L97.7629 32.1907L97.4979 31.6H96.8505V32.6ZM94.2345 38.336L93.3196 37.9323L92.7001 39.336H94.2345V38.336ZM98.7465 38.336V39.336H100.281L99.6614 37.9323L98.7465 38.336ZM96.4905 33.224L97.4054 32.8203L96.4905 30.7472L95.5756 32.8203L96.4905 33.224ZM100.619 40H99.9225V42H100.619V40ZM100.835 40.5914L99.9112 38.5274L98.0858 39.3446L99.0098 41.4086L100.835 40.5914ZM98.9985 37.936H93.9825V39.936H98.9985V37.936ZM93.0678 38.5318L92.1558 40.5958L93.9852 41.4042L94.8972 39.3402L93.0678 38.5318ZM93.0705 40H92.3745V42H93.0705V40ZM93.2869 41.4093L97.0549 33.0093L95.2301 32.1907L91.4621 40.5907L93.2869 41.4093ZM96.1425 33.6H96.8505V31.6H96.1425V33.6ZM95.9381 33.0093L99.7061 41.4093L101.531 40.5907L97.7629 32.1907L95.9381 33.0093ZM94.2345 39.336H98.7465V37.336H94.2345V39.336ZM99.6614 37.9323L97.4054 32.8203L95.5756 33.6277L97.8316 38.7397L99.6614 37.9323ZM95.5756 32.8203L93.3196 37.9323L95.1494 38.7397L97.4054 33.6277L95.5756 32.8203ZM111.854 37.784V36.784H109.572L111.118 38.4617L111.854 37.784ZM114.818 41V42H117.099L115.553 40.3223L114.818 41ZM113.966 41L113.227 41.6743L113.525 42H113.966V41ZM111.062 37.82L111.8 37.1457L111.503 36.82H111.062V37.82ZM108.77 37.82V36.82H107.77V37.82H108.77ZM108.77 41V42H109.77V41H108.77ZM108.122 41H107.122V42H108.122V41ZM108.122 32.6V31.6H107.122V32.6H108.122ZM113.834 33.38L114.566 32.6989L114.566 32.6989L113.834 33.38ZM114.578 35.216H115.578V35.2075L115.577 35.1991L114.578 35.216ZM113.87 37.052L113.154 36.3537L113.154 36.3537L113.87 37.052ZM108.77 33.2V32.2H107.77V33.2H108.77ZM108.77 37.208H107.77V38.208H108.77V37.208ZM113.33 36.668L114.037 37.3751L114.043 37.3691L114.049 37.363L113.33 36.668ZM113.87 35.204L114.869 35.2232L114.87 35.2136V35.204H113.87ZM113.342 33.8L114.091 33.1384L114.087 33.1328L114.082 33.1273L113.342 33.8ZM111.118 38.4617L114.082 41.6777L115.553 40.3223L112.589 37.1063L111.118 38.4617ZM114.818 40H113.966V42H114.818V40ZM114.704 40.3257L111.8 37.1457L110.323 38.4943L113.227 41.6743L114.704 40.3257ZM111.062 36.82H108.77V38.82H111.062V36.82ZM107.77 37.82V41H109.77V37.82H107.77ZM108.77 40H108.122V42H108.77V40ZM109.122 41V32.6H107.122V41H109.122ZM108.122 33.6H111.818V31.6H108.122V33.6ZM111.818 33.6C112.465 33.6 112.849 33.7894 113.101 34.0611L114.566 32.6989C113.859 31.9386 112.898 31.6 111.818 31.6V33.6ZM113.101 34.0611C113.416 34.3998 113.57 34.7765 113.578 35.2329L115.577 35.1991C115.561 34.2395 115.211 33.3922 114.566 32.6989L113.101 34.0611ZM113.578 35.216C113.578 35.7186 113.431 36.0698 113.154 36.3537L114.585 37.7503C115.268 37.0502 115.578 36.1774 115.578 35.216H113.578ZM113.154 36.3537C112.911 36.6024 112.528 36.784 111.854 36.784V38.784C112.907 38.784 113.868 38.4856 114.585 37.7503L113.154 36.3537ZM107.77 33.2V37.208H109.77V33.2H107.77ZM108.77 38.208H111.746V36.208H108.77V38.208ZM111.746 38.208C112.607 38.208 113.429 37.983 114.037 37.3751L112.622 35.9609C112.51 36.073 112.276 36.208 111.746 36.208V38.208ZM114.049 37.363C114.609 36.783 114.854 36.0411 114.869 35.2232L112.87 35.1848C112.862 35.6149 112.746 35.833 112.611 35.973L114.049 37.363ZM114.87 35.204C114.87 34.4403 114.618 33.7349 114.091 33.1384L112.592 34.4616C112.785 34.6811 112.87 34.9117 112.87 35.204H114.87ZM114.082 33.1273C113.494 32.4806 112.685 32.2 111.818 32.2V34.2C112.246 34.2 112.47 34.3274 112.602 34.4727L114.082 33.1273ZM111.818 32.2H108.77V34.2H111.818V32.2ZM129.844 41H128.844V42H129.844V41ZM129.844 33.536H130.844V30.1785L129.007 32.9889L129.844 33.536ZM126.628 38.456V39.456H127.169L127.465 39.0031L126.628 38.456ZM126.412 38.456L125.577 39.006L125.873 39.456H126.412V38.456ZM123.172 33.536L124.007 32.986L122.172 30.1993V33.536H123.172ZM123.172 41V42H124.172V41H123.172ZM122.524 41H121.524V42H122.524V41ZM122.524 32.6V31.6H121.524V32.6H122.524ZM123.292 32.6L124.128 32.051L123.832 31.6H123.292V32.6ZM126.508 37.496L125.672 38.045L126.513 39.3246L127.347 38.0407L126.508 37.496ZM129.688 32.6V31.6H129.145L128.849 32.0553L129.688 32.6ZM130.48 32.6H131.48V31.6H130.48V32.6ZM130.48 41V42H131.48V41H130.48ZM130.844 41V33.536H128.844V41H130.844ZM129.007 32.9889L125.791 37.9089L127.465 39.0031L130.681 34.0831L129.007 32.9889ZM126.628 37.456H126.412V39.456H126.628V37.456ZM127.247 37.906L124.007 32.986L122.337 34.086L125.577 39.006L127.247 37.906ZM122.172 33.536V41H124.172V33.536H122.172ZM123.172 40H122.524V42H123.172V40ZM123.524 41V32.6H121.524V41H123.524ZM122.524 33.6H123.292V31.6H122.524V33.6ZM122.456 33.149L125.672 38.045L127.344 36.947L124.128 32.051L122.456 33.149ZM127.347 38.0407L130.527 33.1447L128.849 32.0553L125.669 36.9513L127.347 38.0407ZM129.688 33.6H130.48V31.6H129.688V33.6ZM129.48 32.6V41H131.48V32.6H129.48ZM130.48 40H129.844V42H130.48V40ZM146.228 41V42H147.772L147.14 40.5907L146.228 41ZM145.532 41L144.619 41.4086L144.884 42H145.532V41ZM144.608 38.936L145.521 38.5274L145.256 37.936H144.608V38.936ZM139.592 38.936V37.936H138.94L138.677 38.5318L139.592 38.936ZM138.68 41V42H139.331L139.595 41.4042L138.68 41ZM137.984 41L137.071 40.5907L136.439 42H137.984V41ZM141.752 32.6V31.6H141.104L140.839 32.1907L141.752 32.6ZM142.46 32.6L143.372 32.1907L143.107 31.6H142.46V32.6ZM139.844 38.336L138.929 37.9323L138.31 39.336H139.844V38.336ZM144.356 38.336V39.336H145.89L145.271 37.9323L144.356 38.336ZM142.1 33.224L143.015 32.8203L142.1 30.7472L141.185 32.8203L142.1 33.224ZM146.228 40H145.532V42H146.228V40ZM146.445 40.5914L145.521 38.5274L143.695 39.3446L144.619 41.4086L146.445 40.5914ZM144.608 37.936H139.592V39.936H144.608V37.936ZM138.677 38.5318L137.765 40.5958L139.595 41.4042L140.507 39.3402L138.677 38.5318ZM138.68 40H137.984V42H138.68V40ZM138.896 41.4093L142.664 33.0093L140.839 32.1907L137.071 40.5907L138.896 41.4093ZM141.752 33.6H142.46V31.6H141.752V33.6ZM141.547 33.0093L145.315 41.4093L147.14 40.5907L143.372 32.1907L141.547 33.0093ZM139.844 39.336H144.356V37.336H139.844V39.336ZM145.271 37.9323L143.015 32.8203L141.185 33.6277L143.441 38.7397L145.271 37.9323ZM141.185 32.8203L138.929 37.9323L140.759 38.7397L143.015 33.6277L141.185 32.8203ZM159.788 39.428L160.474 38.701L159.774 38.0392L159.086 38.7151L159.788 39.428ZM160.22 39.836L160.927 40.5431L161.654 39.8155L160.906 39.109L160.22 39.836ZM153.992 39.872L154.725 39.1924L154.72 39.1866L153.992 39.872ZM152.84 36.848H153.84V36.8402L153.84 36.8324L152.84 36.848ZM153.296 34.724L154.197 35.1578L154.197 35.1578L153.296 34.724ZM154.772 33.128L154.253 32.2731L154.242 32.28L154.772 33.128ZM160.22 33.764L160.874 34.5204L161.687 33.8171L160.927 33.0569L160.22 33.764ZM159.776 34.148L159.075 34.861L159.732 35.5077L160.43 34.9044L159.776 34.148ZM153.464 36.824L152.464 36.8354L152.464 36.8355L153.464 36.824ZM154.448 39.44L155.185 38.7648L155.18 38.7586L154.448 39.44ZM159.101 40.155L159.533 40.563L160.906 39.109L160.474 38.701L159.101 40.155ZM159.513 39.1289C158.862 39.7792 158.097 40.096 157.16 40.096V42.096C158.622 42.096 159.897 41.5728 160.927 40.5431L159.513 39.1289ZM157.16 40.096C156.016 40.096 155.252 39.7604 154.725 39.1924L153.258 40.5516C154.244 41.6156 155.591 42.096 157.16 42.096V40.096ZM154.72 39.1866C154.14 38.5701 153.84 37.8131 153.84 36.848H151.84C151.84 38.2829 152.308 39.5419 153.263 40.5574L154.72 39.1866ZM153.84 36.8324C153.83 36.2147 153.954 35.6612 154.197 35.1578L152.395 34.2902C152.013 35.0828 151.825 35.9453 151.84 36.8636L153.84 36.8324ZM154.197 35.1578C154.417 34.7006 154.77 34.3085 155.302 33.976L154.242 32.28C153.43 32.7875 152.799 33.4514 152.395 34.2902L154.197 35.1578ZM155.291 33.9828C155.789 33.68 156.398 33.504 157.16 33.504V31.504C156.073 31.504 155.098 31.76 154.253 32.2732L155.291 33.9828ZM157.16 33.504C158.097 33.504 158.862 33.8208 159.513 34.4711L160.927 33.0569C159.897 32.0272 158.622 31.504 157.16 31.504V33.504ZM159.566 33.0076L159.122 33.3916L160.43 34.9044L160.874 34.5204L159.566 33.0076ZM160.477 33.435C159.571 32.544 158.455 32.08 157.16 32.08V34.08C157.928 34.08 158.541 34.336 159.075 34.861L160.477 33.435ZM157.16 32.08C155.766 32.08 154.558 32.5159 153.68 33.491L155.167 34.829C155.585 34.3641 156.201 34.08 157.16 34.08V32.08ZM153.68 33.491C152.851 34.4121 152.449 35.5486 152.464 36.8354L154.464 36.8126C154.454 35.9874 154.7 35.3479 155.167 34.829L153.68 33.491ZM152.464 36.8355C152.478 38.0957 152.877 39.2207 153.716 40.1214L155.18 38.7586C154.722 38.2673 154.473 37.6403 154.464 36.8125L152.464 36.8355ZM153.71 40.1152C154.589 41.0751 155.783 41.496 157.16 41.496V39.496C156.209 39.496 155.603 39.2209 155.185 38.7648L153.71 40.1152ZM157.16 41.496C158.435 41.496 159.565 41.0494 160.489 40.1409L159.086 38.7151C158.546 39.2466 157.924 39.496 157.16 39.496V41.496ZM170.276 41H169.276V42H170.276V41ZM170.276 37.64H171.276V37.343L171.114 37.0941L170.276 37.64ZM167 32.612H166V32.909L166.162 33.1579L167 32.612ZM167 32.6V31.6H166V32.6H167ZM167.756 32.6L168.597 32.0585L168.302 31.6H167.756V32.6ZM170.6 37.016L169.76 37.5575L170.599 38.8601L171.44 37.5591L170.6 37.016ZM173.456 32.6V31.6H172.912L172.617 32.0569L173.456 32.6ZM174.212 32.6H175.212V31.6H174.212V32.6ZM174.212 32.612L175.049 33.1593L175.212 32.9099V32.612H174.212ZM170.924 37.64L170.087 37.0927L169.924 37.3421V37.64H170.924ZM170.924 41V42H171.924V41H170.924ZM171.276 41V37.64H169.276V41H171.276ZM171.114 37.0941L167.838 32.0661L166.162 33.1579L169.438 38.1859L171.114 37.0941ZM168 32.612V32.6H166V32.612H168ZM167 33.6H167.756V31.6H167V33.6ZM166.916 33.1414L169.76 37.5575L171.441 36.4745L168.597 32.0585L166.916 33.1414ZM171.44 37.5591L174.296 33.1431L172.617 32.0569L169.761 36.4729L171.44 37.5591ZM173.456 33.6H174.212V31.6H173.456V33.6ZM173.212 32.6V32.612H175.212V32.6H173.212ZM173.375 32.0647L170.087 37.0927L171.761 38.1873L175.049 33.1593L173.375 32.0647ZM169.924 37.64V41H171.924V37.64H169.924ZM170.924 40H170.276V42H170.924V40Z" fill="#86CCEA" mask="url(#path-15-outside-3_648_28)"/>
</svg>
